<svg version="1.1" xmlns="http://www.w3.org/2000/svg" width="1024" height="1024">
<path d="M0 0 C337.92 0 675.84 0 1024 0 C1024 337.92 1024 675.84 1024 1024 C686.08 1024 348.16 1024 0 1024 C0 686.08 0 348.16 0 0 Z " fill="#525353" transform="translate(0,0)"/>
<path d="M0 0 C2.54044257 2.23497078 4.75009427 4.46885606 7 7 C4.39417629 7.93065133 3.35801776 8.14917407 0.75 7.0625 C-0.11625 6.5365625 -0.11625 6.5365625 -1 6 C2.38388233 9.47905403 5.7900715 12.86771388 9.5 16 C23.58599452 28.25344766 35.47277227 41.68771342 44.78515625 57.91015625 C45.90648815 59.83913556 47.10467645 61.6670418 48.375 63.5 C50 66 50 66 50 68 C46.5778282 66.53772972 44.47749512 64.63410368 41.9375 61.9375 C38.95486048 58.74730313 38.95486048 58.74730313 35 57 C35.80050781 58.18529297 35.80050781 58.18529297 36.6171875 59.39453125 C60.54588175 95.39624062 60.54588175 95.39624062 59 109 C56.07299167 107.69113024 54.12815685 106.33773912 51.984375 103.9609375 C51.45585938 103.38085938 50.92734375 102.80078125 50.3828125 102.203125 C49.57457031 101.29820312 49.57457031 101.29820312 48.75 100.375 C47.91855469 99.45847656 47.91855469 99.45847656 47.0703125 98.5234375 C45.7082159 97.02043435 44.35338399 95.5108532 43 94 C43.4846875 94.825 43.969375 95.65 44.46875 96.5 C58.40993101 120.43475854 58.40993101 120.43475854 62 133 C60.68 133.33 59.36 133.66 58 134 C57.50693359 133.21689453 57.50693359 133.21689453 57.00390625 132.41796875 C49.04051305 120.09521125 39.09330449 109.57337359 29 99 C28.27731934 98.23429687 28.27731934 98.23429687 27.54003906 97.453125 C22.15223354 91.75621517 16.7539253 87.01320199 10 83 C10.68964844 83.66644531 11.37929688 84.33289063 12.08984375 85.01953125 C18.54248198 91.34825051 24.425845 97.86892585 30 105 C30.42732422 105.53979492 30.85464844 106.07958984 31.29492188 106.63574219 C40.880801 118.74678396 40.880801 118.74678396 44 125 C43.67 125.99 43.34 126.98 43 128 C39.59824793 125.10378521 36.20717444 122.20031193 32.88671875 119.2109375 C23.85887084 111.1592635 14.1936888 104.48689287 4 98 C2.87756463 97.27349857 1.755165 96.54694193 0.6328125 95.8203125 C-32.1876406 75.02567427 -68.80226771 63.80861947 -107.71533203 72.45214844 C-137.44989087 79.58234186 -163.38113261 93.65237576 -189 110 C-189.9890332 110.6300293 -190.97806641 111.26005859 -191.99707031 111.90917969 C-193.5183252 112.87839355 -193.5183252 112.87839355 -195.0703125 113.8671875 C-196.0713501 114.50487061 -197.0723877 115.14255371 -198.10375977 115.79956055 C-200.03584966 117.03240576 -201.96611214 118.26812085 -203.89428711 119.50708008 C-204.76577393 120.06548584 -205.63726074 120.6238916 -206.53515625 121.19921875 C-207.302229 121.69252686 -208.06930176 122.18583496 -208.85961914 122.6940918 C-213.02710513 125.23679541 -213.02710513 125.23679541 -215 126 C-216.32 125.67 -217.64 125.34 -219 125 C-214.05 120.545 -214.05 120.545 -209 116 C-216.73997064 121.15998043 -224.35038579 126.3881572 -231.625 132.1875 C-248.30444224 145.47067572 -265.76428009 157.82806521 -283.4375 169.75 C-284.07075195 170.18086914 -284.70400391 170.61173828 -285.35644531 171.05566406 C-289.76441138 174 -289.76441138 174 -292 174 C-290.38462556 170.10082032 -287.72075127 167.28706228 -284.875 164.25 C-284.40707031 163.74339844 -283.93914062 163.23679687 -283.45703125 162.71484375 C-282.30873459 161.47280859 -281.15491328 160.23588506 -280 159 C-282.19443589 160.46295726 -284.26307973 161.93802526 -286.34375 163.546875 C-287.3332666 164.30919434 -287.3332666 164.30919434 -288.34277344 165.08691406 C-289.0546582 165.63573242 -289.76654297 166.18455078 -290.5 166.75 C-303.08822265 176.41022274 -315.79704299 185.90399141 -328.8984375 194.859375 C-331.68161047 196.78025508 -334.42869568 198.74059524 -337.16870117 200.72192383 C-344.03651368 205.68438048 -351.05243154 210.34016858 -358.21484375 214.86474609 C-360.07850041 216.04992163 -361.93091272 217.25117746 -363.78125 218.45703125 C-364.40386719 218.86171631 -365.02648437 219.26640137 -365.66796875 219.68334961 C-367.39395093 220.80602005 -369.11888508 221.93030126 -370.84375 223.0546875 C-378.86746988 228 -378.86746988 228 -383 228 C-381.66667905 224.00003714 -379.5042173 223.16217663 -376 221 C-379.07992765 220.65339855 -379.07992765 220.65339855 -380.90405273 222.83129883 C-381.59571533 223.54697021 -382.28737793 224.2626416 -383 225 C-385.17211914 226.4128418 -385.17211914 226.4128418 -387.53515625 227.69921875 C-388.85894287 228.42310791 -388.85894287 228.42310791 -390.20947266 229.16162109 C-391.62172119 229.91693115 -391.62172119 229.91693115 -393.0625 230.6875 C-394.52502197 231.47761475 -394.52502197 231.47761475 -396.01708984 232.28369141 C-403.84060011 236.47018944 -411.78740223 240.33580571 -419.83984375 244.05859375 C-423.17115405 245.59892499 -426.43419655 247.23744769 -429.6875 248.9375 C-465.26856956 266.87795502 -511.11609293 282.52503847 -550.92333984 269.73632812 C-570.61718455 262.75341775 -585.13149985 251.25954658 -594.31494141 232.16577148 C-603.07443055 212.97330512 -604.35852856 189.91475526 -597 169.9375 C-596.67 169.01839844 -596.34 168.09929687 -596 167.15234375 C-595 165 -595 165 -593 164 C-593.03480469 165.00933594 -593.06960938 166.01867187 -593.10546875 167.05859375 C-593.64284616 190.07897358 -591.74249855 213.71083035 -578 233 C-577.34 233.66 -576.68 234.32 -576 235 C-576.61488281 233.31197266 -576.61488281 233.31197266 -577.2421875 231.58984375 C-580.72821415 221.77126344 -583.30308969 212.46437631 -584 202 C-584.04914551 201.33097656 -584.09829102 200.66195312 -584.14892578 199.97265625 C-585.69926507 176.10076534 -577.97225261 151.47917596 -566 131 C-565.67 131 -565.34 131 -565 131 C-565.51277844 135.82410012 -566.07637106 140.62979297 -566.75390625 145.43359375 C-571.24189952 169.644283 -571.24189952 169.644283 -568 193 C-567.86537354 192.42894531 -567.73074707 191.85789062 -567.59204102 191.26953125 C-562.47992514 169.91281304 -555.62494091 149.28329792 -545 130 C-544.50790039 129.1020874 -544.50790039 129.1020874 -544.00585938 128.18603516 C-538.51910311 118.25955155 -538.51910311 118.25955155 -536 117 C-537.77467148 125.90640299 -537.77467148 125.90640299 -538.56933594 129.76318359 C-542.27675095 147.75946369 -544.84283041 165.76560463 -547 184 C-546.52691406 182.9584375 -546.05382812 181.916875 -545.56640625 180.84375 C-538.08615684 164.55057409 -529.46032925 149.56218869 -519 135 C-518.26007813 133.96230469 -517.52015625 132.92460938 -516.7578125 131.85546875 C-510.64658995 123.49451043 -503.85268907 115.75296506 -497 108 C-495.56247697 112.31256908 -497.58052623 114.98248926 -499.4375 118.875 C-502.62106785 125.79505997 -505.58251715 132.76323659 -508.3125 139.875 C-508.63726318 140.70499512 -508.96202637 141.53499023 -509.29663086 142.39013672 C-511.73617569 148.80746154 -513.44881628 155.31631825 -515 162 C-514.6282666 161.37657715 -514.2565332 160.7531543 -513.87353516 160.11083984 C-506.67485837 148.07163525 -499.44911686 136.20456928 -491 125 C-490.21496094 123.94167969 -489.42992187 122.88335938 -488.62109375 121.79296875 C-479.17315499 109.17792076 -468.88379338 96.41184811 -457 86 C-456.34 86 -455.68 86 -455 86 C-455.56743643 90.66361817 -457.64017675 94.16335733 -460 98.125 C-463.55714417 104.28440368 -466.85676847 110.52607644 -469.9375 116.9375 C-470.50307617 118.08919678 -470.50307617 118.08919678 -471.08007812 119.26416016 C-473.5177064 124.40915427 -474.99956841 129.39774888 -476 135 C-475.62302979 134.47680176 -475.24605957 133.95360352 -474.85766602 133.41455078 C-461.96461797 115.5735085 -461.96461797 115.5735085 -455.046875 108.2265625 C-452.87622589 105.86536023 -450.91715399 103.39794249 -448.9375 100.875 C-438.25232862 87.70098836 -425.4550393 74.98556497 -411 66 C-411.63534538 69.99497476 -413.64785629 72.73763599 -415.875 76.0625 C-419.70008975 81.88817615 -423.34630847 87.80260483 -426.875 93.8125 C-427.57085205 94.97567749 -427.57085205 94.97567749 -428.28076172 96.16235352 C-431.25786058 101.27410948 -433.35636462 106.31807892 -435 112 C-433.35293077 110.06353917 -431.70713724 108.12602524 -430.0625 106.1875 C-429.55887939 105.59437012 -429.05525879 105.00124023 -428.53637695 104.39013672 C-425.53263883 100.84263889 -422.59018252 97.25609153 -419.6875 93.625 C-403.11681013 73.33917325 -383.28947519 53.46629884 -360 41 C-359.34 41 -358.68 41 -358 41 C-359.43327192 44.23571993 -361.21004585 46.48879388 -363.625 49.0625 C-368.18065242 54.09423862 -372.10511837 59.44834036 -376 65 C-376.39960938 65.56396484 -376.79921875 66.12792969 -377.2109375 66.70898438 C-382.33355435 73.46924205 -382.33355435 73.46924205 -386 81 C-385.43603516 80.43079834 -384.87207031 79.86159668 -384.29101562 79.27514648 C-381.69673231 76.65988156 -379.09840077 74.04867381 -376.5 71.4375 C-375.613125 70.54224609 -374.72625 69.64699219 -373.8125 68.72460938 C-368.70537128 63.59870445 -363.49277399 58.70707673 -358 54 C-356.4551874 52.5867645 -354.91304675 51.17059591 -353.375 49.75 C-347.17387448 44.16425334 -340.63351461 39.05709579 -334 34 C-333.38962891 33.53271484 -332.77925781 33.06542969 -332.15039062 32.58398438 C-301.19437241 9 -301.19437241 9 -291 9 C-291.56851861 12.32491832 -292.44919154 13.76895174 -295.02734375 15.91796875 C-295.64931641 16.44503418 -296.27128906 16.97209961 -296.91210938 17.51513672 C-297.58048828 18.0670166 -298.24886719 18.61889648 -298.9375 19.1875 C-300.32209632 20.3601085 -301.7062108 21.53328617 -303.08984375 22.70703125 C-304.10280518 23.559021 -304.10280518 23.559021 -305.13623047 24.42822266 C-317.29906933 34.68553948 -329.86525017 45.88434753 -339 59 C-336.38333073 57.07344131 -333.87778242 55.08262947 -331.4375 52.9375 C-330.73367188 52.32003906 -330.02984375 51.70257813 -329.3046875 51.06640625 C-327.7306839 49.65513861 -326.17397231 48.22440634 -324.6328125 46.77734375 C-316.54746351 39.22036863 -307.87678721 32.5934739 -299 26 C-298.26297852 25.44876465 -297.52595703 24.8975293 -296.76660156 24.32958984 C-282.29274358 13.53289131 -267.61634853 3.88910794 -251.1875 -3.6875 C-250.2500293 -4.12215576 -249.31255859 -4.55681152 -248.34667969 -5.00463867 C-247.46270508 -5.3988501 -246.57873047 -5.79306152 -245.66796875 -6.19921875 C-244.49657349 -6.72261841 -244.49657349 -6.72261841 -243.30151367 -7.2565918 C-240.75125538 -8.0803466 -238.66335883 -8.13574444 -236 -8 C-239.84159869 -3.95194303 -243.95126544 -0.62134193 -248.4375 2.6875 C-249.13907227 3.21150391 -249.84064453 3.73550781 -250.56347656 4.27539062 C-253.9169903 6.7689903 -257.29016069 9.22074794 -260.73828125 11.58203125 C-269.06500416 17.30057608 -276.08819811 23.63247491 -283 31 C-282.2718811 30.44928833 -282.2718811 30.44928833 -281.52905273 29.88745117 C-264.11845165 16.76729724 -246.11573265 4.50504226 -227 -6 C-226.38382813 -6.34160156 -225.76765625 -6.68320312 -225.1328125 -7.03515625 C-203.49896218 -19 -203.49896218 -19 -196 -19 C-196 -18.34 -196 -17.68 -196 -17 C-198.24179527 -15.39958205 -200.48740422 -13.90788767 -202.8125 -12.4375 C-212.98007771 -5.83589361 -222.02525434 1.86732925 -231 10 C-224.83359067 6.44459282 -218.71934942 2.84176049 -212.6875 -0.9375 C-191.93187604 -13.69890837 -169.63691615 -23.94603478 -146 -30 C-144.8553125 -30.29511475 -144.8553125 -30.29511475 -143.6875 -30.59619141 C-92.66868552 -43.55837736 -41.66024665 -31.86711556 0 0 Z " fill="#060707" transform="translate(797,402)"/>
<path d="M0 0 C1.5943689 0.01740234 1.5943689 0.01740234 3.22094727 0.03515625 C35.06728788 0.46528103 67.05121602 3.28836341 98 11 C99.44560303 11.35964844 99.44560303 11.35964844 100.92041016 11.7265625 C125.70530463 18.04981576 149.66271764 27.7751451 171 42 C171 42.66 171 43.32 171 44 C170.1951416 43.72518799 170.1951416 43.72518799 169.37402344 43.44482422 C149.11864125 36.60131756 128.32216783 31.61864576 107.39013672 27.34326172 C103.94238836 26.63711491 100.55337902 25.8817768 97.1484375 24.98046875 C92.13964117 23.70812994 87.06219115 23.11274388 81.9375 22.5 C80.87805176 22.37326904 79.81860352 22.24653809 78.72705078 22.1159668 C75.48560293 21.73565426 72.24291178 21.36758699 69 21 C68.09362793 20.89123535 67.18725586 20.7824707 66.25341797 20.67041016 C53.03295615 19.1093682 39.85972515 18.79433376 26.5625 18.75 C25.76052185 18.74473297 24.9585437 18.73946594 24.13226318 18.73403931 C14.4899697 18.68501153 5.16737853 19.17753422 -4.3840332 20.50976562 C-9.36947833 21.1856669 -14.35834277 21.52672591 -19.375 21.875 C-28.05574648 22.53304422 -36.59426348 23.61243795 -45.1875 25 C-63.14748461 27.85183423 -80.57023201 29.18381674 -98.75 29.25 C-99.58559448 29.25535767 -100.42118896 29.26071533 -101.28210449 29.26623535 C-103.70386772 29.27802443 -106.12510757 29.27444976 -108.546875 29.265625 C-109.62400757 29.27154663 -109.62400757 29.27154663 -110.72290039 29.27758789 C-114.39549312 29.24471684 -117.71209908 28.90726236 -121.28442383 28.03662109 C-126.78523744 26.71272174 -132.26599628 26.44258513 -137.90234375 26.1484375 C-139.57895836 26.05280014 -139.57895836 26.05280014 -141.28944397 25.95523071 C-143.64158073 25.8224694 -145.99391959 25.69324621 -148.34643555 25.56738281 C-151.92350113 25.37574996 -155.49981888 25.17321133 -159.07617188 24.96875 C-161.37236018 24.84050579 -163.66858318 24.71288107 -165.96484375 24.5859375 C-167.02243393 24.52659027 -168.08002411 24.46724304 -169.16966248 24.40609741 C-178.50336964 23.91132491 -187.70128588 23.86270635 -197.0234375 24.55078125 C-197.8434877 24.60916672 -198.6635379 24.66755219 -199.50843811 24.72770691 C-202.13106013 24.91719927 -204.7530627 25.11376884 -207.375 25.3125 C-208.71825851 25.41328857 -208.71825851 25.41328857 -210.08865356 25.51611328 C-222.11384611 26.42787407 -234.05339444 27.4611523 -245.92919922 29.625 C-248.12776961 30.02313772 -250.33024687 30.38870911 -252.53515625 30.75 C-259.73895382 31.94842373 -266.84847736 33.32226082 -273.8984375 35.25390625 C-276.62110281 35.90885471 -279.29305006 36.37607578 -282.0546875 36.82421875 C-288.52884978 37.97802446 -294.55885388 40.07280436 -300.75 42.25 C-309.76370534 45.33501818 -318.78535265 48.19947083 -328 50.625 C-328.96647461 50.88442383 -329.93294922 51.14384766 -330.92871094 51.41113281 C-331.81848633 51.63897461 -332.70826172 51.86681641 -333.625 52.1015625 C-334.40101563 52.30088379 -335.17703125 52.50020508 -335.9765625 52.70556641 C-338 53 -338 53 -341 52 C-327.35748554 42.9238989 -313.25878164 35.89868243 -298 30 C-297.35482422 29.75040527 -296.70964844 29.50081055 -296.04492188 29.24365234 C-292.12636312 27.73751912 -288.19212563 26.27751007 -284.25048828 24.83300781 C-281.7636043 23.91249923 -279.28637124 22.96817225 -276.80859375 22.0234375 C-265.39498145 17.71612749 -254.03475067 14.20520663 -242.1394043 11.49707031 C-240.11356301 11.02638529 -238.10278253 10.51489693 -236.08984375 9.9921875 C-208.04999958 2.93364257 -178.69322554 0.60365918 -149.875 0.75 C-148.85097076 0.75177246 -147.82694153 0.75354492 -146.7718811 0.75537109 C-134.86783727 0.77942224 -123.05327468 0.98839558 -111.1875 2 C-84.71518993 4.23973701 -58.47423435 2.89790618 -32.01489258 1.06762695 C-21.31169743 0.33234571 -10.73331463 -0.21490332 0 0 Z " fill="#050606" transform="translate(566,289)"/>
<path d="M0 0 C1.3562659 -0.00424107 1.3562659 -0.00424107 2.73993111 -0.00856781 C7.53650302 -0.0233962 12.3330462 -0.03272513 17.12963867 -0.03710938 C20.99464517 -0.04146304 24.85942454 -0.05525796 28.72436523 -0.078125 C48.78410013 -0.19420173 68.7405757 -0.05108018 88.74609375 1.5546875 C89.88216977 1.64480732 89.88216977 1.64480732 91.04119682 1.73674774 C104.56610852 2.83987406 117.92882387 4.81530593 131.296875 7.1171875 C135.48847006 7.83059416 139.6203345 8.38307266 143.859375 8.70703125 C148.82432593 9.10586637 153.38228034 10.14477938 158.16015625 11.515625 C159.80542977 11.96948221 161.45127765 12.42126177 163.09765625 12.87109375 C163.9175 13.09587402 164.73734375 13.3206543 165.58203125 13.55224609 C169.42028535 14.57063636 173.28821293 15.44845195 177.16015625 16.328125 C182.13860109 17.47313345 187.01459721 18.71250446 191.828125 20.43359375 C194.55952574 21.38595826 197.3245128 22.1928242 200.09765625 23.015625 C213.00722913 26.98780127 225.07656675 31.93294564 237.03515625 38.203125 C238.3667444 38.87327067 239.699239 39.54165141 241.03515625 40.203125 C241.03515625 40.863125 241.03515625 41.523125 241.03515625 42.203125 C234.16594359 41.07372298 227.37825096 39.64099067 220.58984375 38.109375 C219.73022034 37.91625732 218.87059692 37.72313965 217.98492432 37.52416992 C214.39892079 36.71768313 210.81326745 35.90997827 207.23046875 35.08935547 C196.58088056 32.65533119 186.09402703 30.64030059 175.21533203 29.58007812 C172.03515625 29.203125 172.03515625 29.203125 170.03515625 28.203125 C168.64298063 28.00626723 167.24361094 27.85894698 165.84277344 27.73828125 C164.97295837 27.66150146 164.10314331 27.58472168 163.20697021 27.50561523 C162.25824036 27.42641846 161.3095105 27.34722168 160.33203125 27.265625 C159.34382385 27.18062744 158.35561646 27.09562988 157.33746338 27.00805664 C155.22921771 26.82787814 153.12079151 26.64980195 151.01220703 26.47363281 C147.86694691 26.20998111 144.72254077 25.93757644 141.578125 25.6640625 C139.51697298 25.48904197 137.4557761 25.31454885 135.39453125 25.140625 C134.48628601 25.06142822 133.57804077 24.98223145 132.64227295 24.90063477 C111.96487918 23.19876226 91.28257159 23.05068912 70.54998946 23.0687995 C66.65135241 23.07138168 62.75271738 23.06896949 58.8540802 23.06741333 C52.31116302 23.06560772 45.76825723 23.06795457 39.2253418 23.07275391 C31.73409586 23.07818651 24.24287719 23.07643457 16.75163192 23.0709275 C10.24554122 23.06634177 3.73945858 23.06577234 -2.76663321 23.06836617 C-6.61969839 23.0699002 -10.47275091 23.07020426 -14.3258152 23.06682968 C-38.42301802 23.0486588 -62.44732761 23.22586912 -86.40234375 26.078125 C-87.96049729 26.25655736 -89.51868466 26.4346946 -91.0769043 26.61254883 C-99.54661987 27.59435409 -107.96946938 28.72946663 -116.35693359 30.2734375 C-120.5991577 31.03996496 -124.72241929 31.40270407 -129.02734375 31.578125 C-140.19370683 32.18331577 -151.06272192 34.83943221 -161.96484375 37.203125 C-163.09664063 37.44756348 -164.2284375 37.69200195 -165.39453125 37.94384766 C-175.33787595 40.10133926 -185.27216376 42.29543744 -195.16015625 44.6953125 C-196.60310059 45.04529297 -196.60310059 45.04529297 -198.07519531 45.40234375 C-199.8624403 45.83921183 -201.6483613 46.28154862 -203.43261719 46.73046875 C-207.35719961 47.69524196 -210.88693913 48.4837905 -214.96484375 48.203125 C-211.36160609 45.22209591 -207.38988058 43.30270152 -203.21484375 41.265625 C-202.53679687 40.93111328 -201.85875 40.59660156 -201.16015625 40.25195312 C-199.7884244 39.57521469 -198.41553305 38.90082157 -197.04150391 38.22875977 C-195.63488628 37.53405007 -194.23360715 36.82844387 -192.83740234 36.11303711 C-189.30343766 34.30464435 -185.93401965 32.69810591 -182.08984375 31.640625 C-181.249375 31.40214844 -180.40890625 31.16367188 -179.54296875 30.91796875 C-178.6921875 30.68207031 -177.84140625 30.44617188 -176.96484375 30.203125 C-175.2550022 29.70830722 -173.54663713 29.20835678 -171.83984375 28.703125 C-171.09476562 28.4865625 -170.3496875 28.27 -169.58203125 28.046875 C-167.54364648 27.38972409 -165.53233437 26.64839471 -163.53515625 25.875 C-136.59596915 15.68891389 -106.98185133 9.09897927 -78.43359375 5.80859375 C-74.89837815 5.38553494 -71.58032995 4.58787474 -68.13623047 3.67358398 C-63.5804385 2.6865128 -58.91801238 2.47438166 -54.27734375 2.140625 C-53.29701172 2.06263672 -52.31667969 1.98464844 -51.30664062 1.90429688 C-34.22179496 0.60331114 -17.1310544 0.03742502 0 0 Z " fill="#050606" transform="translate(472.96484375,209.796875)"/>
<path d="M0 0 C0 0.99 0 1.98 0 3 C1.65 2.67 3.3 2.34 5 2 C0.81289525 6.23588655 -3.48060364 10.35011331 -7.8125 14.4375 C-8.82280273 15.40139648 -8.82280273 15.40139648 -9.85351562 16.38476562 C-14.3376582 20.61144547 -18.98937948 24.41333609 -24 28 C-18.61406437 16.92441056 -8.69553683 8.47570585 0 0 Z " fill="#565655" transform="translate(481,435)"/>
<path d="M0 0 C13.99211186 2.63217946 25.97152848 7.26413187 38 15 C38 15.33 38 15.66 38 16 C33.0506356 15.46585102 29.0785638 14.40083792 24.55078125 12.34765625 C22.78444336 11.55391602 22.78444336 11.55391602 20.98242188 10.74414062 C19.759055 10.1837238 18.53574825 9.6231757 17.3125 9.0625 C16.07783426 8.50506066 14.84281067 7.9484132 13.60742188 7.39257812 C4.23517254 3.15679493 4.23517254 3.15679493 0 1 C0 0.67 0 0.34 0 0 Z " fill="#4F4F4F" transform="translate(738,387)"/>
<path d="M0 0 C0.33 0 0.66 0 1 0 C1.24848951 5.86711343 0.84788742 11.38301647 -0.0625 17.1875 C-1.19879935 24.9747263 -0.82074142 32.18077433 0 40 C0.66 38.02 1.32 36.04 2 34 C3.23777675 37.71333026 2.586962 39.42349272 1.625 43.1875 C0.4108521 48.14388458 -0.5025307 52.92581313 -1 58 C-1.33 58 -1.66 58 -2 58 C-4.3271527 38.52768508 -3.24674611 19.28721797 0 0 Z " fill="#5C5B5B" transform="translate(230,545)"/>
<path d="M0 0 C8.69451577 4.04262628 15.44782703 11.17209828 22.0625 17.9375 C22.83271484 18.71673828 23.60292969 19.49597656 24.39648438 20.29882812 C26.26905344 22.19465892 28.13673972 24.09502733 30 26 C29.67 26.66 29.34 27.32 29 28 C28.38511719 27.3503125 27.77023437 26.700625 27.13671875 26.03125 C25.92435547 24.77828125 25.92435547 24.77828125 24.6875 23.5 C23.88699219 22.6646875 23.08648438 21.829375 22.26171875 20.96875 C20.12262518 18.67171717 20.12262518 18.67171717 17 19 C15.31420898 17.57885742 15.31420898 17.57885742 13.49609375 15.60546875 C12.83802734 14.89712891 12.17996094 14.18878906 11.50195312 13.45898438 C10.82068359 12.70939453 10.13941406 11.95980469 9.4375 11.1875 C8.75236328 10.44951172 8.06722656 9.71152344 7.36132812 8.95117188 C4.68111811 6.0447616 2.19743574 3.29615361 0 0 Z " fill="#505050" transform="translate(806,484)"/>
<path d="M0 0 C-3.16635709 1.79336399 -5.99198727 2.48100497 -9.578125 3.03515625 C-10.65707031 3.20466797 -11.73601563 3.37417969 -12.84765625 3.54882812 C-13.97042969 3.71833984 -15.09320312 3.88785156 -16.25 4.0625 C-17.91095703 4.32256836 -17.91095703 4.32256836 -19.60546875 4.58789062 C-25.39413825 5.48613244 -31.18264664 6.31184966 -37 7 C-35.66006041 4.32012082 -33.95948483 4.01490744 -31.23632812 3.0456543 C-20.7302958 -0.39334365 -10.97776537 -0.50614697 0 0 Z " fill="#505050" transform="translate(694,375)"/>
<path d="M0 0 C0.66 0.33 1.32 0.66 2 1 C2.99 1 3.98 1 5 1 C1.05449936 5.25434609 -3.23318964 8.37099425 -8.0625 11.5625 C-14.43959864 15.77616982 -14.43959864 15.77616982 -20 21 C-20.66 20.67 -21.32 20.34 -22 20 C-7.40318907 5.03416856 -7.40318907 5.03416856 0 0 Z " fill="#585857" transform="translate(535,413)"/>
<path d="M0 0 C0.99 0.66 1.98 1.32 3 2 C2.44400484 5.41539886 1.7461129 7.44147314 -1.06640625 9.546875 C-3.35415058 10.85415748 -5.5316694 12.07437603 -8 13 C-8.66 12.67 -9.32 12.34 -10 12 C-9.01 11.01 -8.02 10.02 -7 9 C-7.33 8.01 -7.66 7.02 -8 6 C-5.36 4.02 -2.72 2.04 0 0 Z " fill="#4E4E4E" transform="translate(599,385)"/>
<path d="M0 0 C9.95745663 3.5703313 17.46634606 10.91249713 24 19 C23.67 19.66 23.34 20.32 23 21 C22.5875 20.60731934 22.175 20.21463867 21.75 19.81005859 C19.83739298 17.9940425 17.91875015 16.18452339 16 14.375 C15.35160156 13.75753906 14.70320312 13.14007813 14.03515625 12.50390625 C10.03606916 8.74238869 5.93790435 5.34267159 1.46875 2.15087891 C0.9840625 1.77108887 0.499375 1.39129883 0 1 C0 0.67 0 0.34 0 0 Z " fill="#5D5D5C" transform="translate(793,436)"/>
<path d="M0 0 C0.66 0.66 1.32 1.32 2 2 C1.505 2.45375 1.01 2.9075 0.5 3.375 C-1.22609337 4.87635519 -1.22609337 4.87635519 -1 7 C-0.01 7.33 0.98 7.66 2 8 C0.375 10 0.375 10 -2 12 C-5.125 12.1875 -5.125 12.1875 -8 12 C-8.99 12.495 -8.99 12.495 -10 13 C-7.73457912 7.85131619 -4.68917123 3.12611416 0 0 Z " fill="#4B4B4A" transform="translate(433,452)"/>
<path d="M0 0 C0.33 0.66 0.66 1.32 1 2 C1.66 2.33 2.32 2.66 3 3 C-2.03034386 8.23566402 -6.92929095 12.99591531 -13 17 C-11.46203092 13.56546802 -9.4264398 10.85610724 -7.0625 7.9375 C-6.37285156 7.08027344 -5.68320312 6.22304688 -4.97265625 5.33984375 C-3.38385308 3.45530297 -1.77941245 1.70131911 0 0 Z " fill="#5C5C5B" transform="translate(470,446)"/>
<path d="M0 0 C3.62498334 -0.02893932 7.24993713 -0.04677792 10.875 -0.0625 C12.42380859 -0.07506836 12.42380859 -0.07506836 14.00390625 -0.08789062 C14.99003906 -0.09111328 15.97617187 -0.09433594 16.9921875 -0.09765625 C18.35899658 -0.10551147 18.35899658 -0.10551147 19.75341797 -0.11352539 C22 0 22 0 24 1 C24 1.66 24 2.32 24 3 C22.22925083 3.02705729 20.45838289 3.04642195 18.6875 3.0625 C17.70136719 3.07410156 16.71523438 3.08570313 15.69921875 3.09765625 C13 3 13 3 10 2 C8.10047654 2.08521741 6.20336427 2.23729084 4.3125 2.4375 C3.31863281 2.53933594 2.32476563 2.64117187 1.30078125 2.74609375 C0.54152344 2.82988281 -0.21773437 2.91367187 -1 3 C-0.67 2.01 -0.34 1.02 0 0 Z " fill="#3A3A3B" transform="translate(705,471)"/>
<path d="M0 0 C0.66 0.66 1.32 1.32 2 2 C2.99 2 3.98 2 5 2 C0.71 6.29 -3.58 10.58 -8 15 C-8 11.14003715 -6.66484897 9.58139944 -4.5625 6.375 C-3.92441406 5.39273437 -3.28632813 4.41046875 -2.62890625 3.3984375 C-1 1 -1 1 0 0 Z " fill="#5E5E5E" transform="translate(418,470)"/>
<path d="M0 0 C0.33 0.66 0.66 1.32 1 2 C0.01 2.66 -0.98 3.32 -2 4 C-2 4.99 -2 5.98 -2 7 C-4.3359375 8.859375 -4.3359375 8.859375 -7.375 10.75 C-8.37273438 11.38421875 -9.37046875 12.0184375 -10.3984375 12.671875 C-11.25695312 13.11015625 -12.11546875 13.5484375 -13 14 C-13.66 13.67 -14.32 13.34 -15 13 C-12.87754286 11.01804354 -10.75219732 9.03935743 -8.625 7.0625 C-8.02171875 6.49853516 -7.4184375 5.93457031 -6.796875 5.35351562 C-6.21679688 4.81533203 -5.63671875 4.27714844 -5.0390625 3.72265625 C-4.50490723 3.22515869 -3.97075195 2.72766113 -3.42041016 2.21508789 C-2 1 -2 1 0 0 Z " fill="#5A595A" transform="translate(580,399)"/>
<path d="M0 0 C0.99 0.33 1.98 0.66 3 1 C2.3125 4.375 2.3125 4.375 1 8 C-1.4375 9.5 -1.4375 9.5 -4 10 C-4.99 9.67 -5.98 9.34 -7 9 C-2.85714286 2.57142857 -2.85714286 2.57142857 0 0 Z " fill="#464746" transform="translate(487,429)"/>
<path d="M0 0 C0.433125 0.66 0.86625 1.32 1.3125 2 C2.1478125 2.99 2.1478125 2.99 3 4 C3.99 4 4.98 4 6 4 C6.69670416 5.78810766 7.38211189 7.58062052 8.0625 9.375 C8.44535156 10.37273438 8.82820312 11.37046875 9.22265625 12.3984375 C10 15 10 15 9 17 C7.87162591 15.41906946 6.74743482 13.83515284 5.625 12.25 C4.99851563 11.36828125 4.37203125 10.4865625 3.7265625 9.578125 C0 4.01357466 0 4.01357466 0 0 Z " fill="#5C5C5B" transform="translate(212,622)"/>
<path d="M0 0 C8.415 1.98 8.415 1.98 17 4 C17.33 5.32 17.66 6.64 18 8 C13.66695924 7.35534798 10.13327935 5.81074878 6.1875 3.9375 C5.02605469 3.38964844 3.86460937 2.84179688 2.66796875 2.27734375 C1.78753906 1.85582031 0.90710938 1.43429687 0 1 C0 0.67 0 0.34 0 0 Z " fill="#535252" transform="translate(738,387)"/>
<path d="M0 0 C0.33 1.32 0.66 2.64 1 4 C1.99 3.01 2.98 2.02 4 1 C2.23570801 5.97209562 -0.3939166 10.43438061 -3 15 C-4.20186843 11.3943947 -3.66097664 9.97715732 -2.625 6.375 C-2.34914063 5.39273438 -2.07328125 4.41046875 -1.7890625 3.3984375 C-1 1 -1 1 0 0 Z " fill="#636362" transform="translate(285,551)"/>
<path d="M0 0 C2.19618509 3.29427763 2.96423202 6.20218407 4 10 C4.33 10.66 4.66 11.32 5 12 C4.01 13.485 4.01 13.485 3 15 C2.13395466 13.23494565 1.28251358 11.46271926 0.4375 9.6875 C-0.03816406 8.70136719 -0.51382813 7.71523438 -1.00390625 6.69921875 C-2 4 -2 4 -1 1 C-0.67 0.67 -0.34 0.34 0 0 Z " fill="#424242" transform="translate(212,613)"/>
<path d="M0 0 C0 4.18678194 -2.02541079 7.11522797 -4 10.6875 C-4.57234375 11.7403418 -4.57234375 11.7403418 -5.15625 12.81445312 C-6.09859522 14.54601247 -7.04857268 16.27341426 -8 18 C-9 15 -9 15 -8.07421875 12.9140625 C-7.61660156 12.15867187 -7.15898437 11.40328125 -6.6875 10.625 C-5.18490182 8.07639425 -3.90463259 5.75907181 -2.8125 3 C-2 1 -2 1 0 0 Z " fill="#646363" transform="translate(266,553)"/>
<path d="M0 0 C4.42857143 5.14285714 4.42857143 5.14285714 5 9 C2 9 2 9 0.375 7.8125 C-1.31412056 5.58593199 -1.62952882 3.74148672 -2 1 C-1.34 0.67 -0.68 0.34 0 0 Z " fill="#0C0D0C" transform="translate(836,520)"/>
<path d="M0 0 C1.66666667 0.66666667 3.33333333 1.33333333 5 2 C5.9075 2.268125 6.815 2.53625 7.75 2.8125 C10 4 10 4 10.8125 6.625 C10.874375 7.40875 10.93625 8.1925 11 9 C8 9 8 9 5.95703125 7.28515625 C5.24933594 6.55167969 4.54164063 5.81820313 3.8125 5.0625 C3.09707031 4.33160156 2.38164063 3.60070312 1.64453125 2.84765625 C0 1 0 1 0 0 Z " fill="#4D4C4C" transform="translate(794,406)"/>
<path d="M0 0 C-2.11997834 1.19733988 -4.24513676 2.38298713 -6.375 3.5625 C-6.97828125 3.90474609 -7.5815625 4.24699219 -8.203125 4.59960938 C-9.76978241 5.46127095 -11.38290862 6.23718183 -13 7 C-13.66 6.67 -14.32 6.34 -15 6 C-14.01 5.67 -13.02 5.34 -12 5 C-11.67 4.01 -11.34 3.02 -11 2 C-9.2578125 1.015625 -9.2578125 1.015625 -7.125 0.25 C-6.42632812 -0.01296875 -5.72765625 -0.2759375 -5.0078125 -0.546875 C-3 -1 -3 -1 0 0 Z " fill="#646463" transform="translate(251,327)"/>
<path d="M0 0 C0.33 0 0.66 0 1 0 C2.04350941 6.95253862 2.46505172 11.7629069 -1 18 C-2.25985286 14.22044143 -1.64024579 11.15576548 -1.0625 7.3125 C-0.96259766 6.61060547 -0.86269531 5.90871094 -0.75976562 5.18554688 C-0.51270675 3.45613473 -0.25717148 1.7279373 0 0 Z " fill="#616160" transform="translate(251,571)"/>
<path d="M0 0 C1.1055189 0.93590504 2.20935453 1.87379858 3.3125 2.8125 C3.92738281 3.33457031 4.54226563 3.85664063 5.17578125 4.39453125 C6.85424679 5.87172469 8.43882034 7.40039131 10 9 C9.67 9.66 9.34 10.32 9 11 C8.01 11 7.02 11 6 11 C4.39453125 9.1015625 4.39453125 9.1015625 2.8125 6.625 C2.01779297 5.40683594 2.01779297 5.40683594 1.20703125 4.1640625 C0 2 0 2 0 0 Z " fill="#5F5E5D" transform="translate(839,495)"/>
<path d="M0 0 C0 0.66 0 1.32 0 2 C-4.29 2.66 -8.58 3.32 -13 4 C-11.72807637 1.45615274 -10.80051531 1.30631844 -8.1875 0.3125 C-7.50042969 0.04050781 -6.81335938 -0.23148437 -6.10546875 -0.51171875 C-3.70623504 -1.06812731 -2.3105636 -0.77364938 0 0 Z " fill="#575756" transform="translate(670,378)"/>
<path d="M0 0 C0.33 0.99 0.66 1.98 1 3 C1.66 3 2.32 3 3 3 C2.34 6.63 1.68 10.26 1 14 C0.67 14 0.34 14 0 14 C0 9.38 0 4.76 0 0 Z " fill="#434343" transform="translate(229,575)"/>
<path d="M0 0 C0 3.77910478 -0.99703962 4.46106101 -3.5 7.1875 C-4.1496875 7.90292969 -4.799375 8.61835937 -5.46875 9.35546875 C-5.9740625 9.89816406 -6.479375 10.44085937 -7 11 C-7.66 10.67 -8.32 10.34 -9 10 C-6.68116787 5.49115974 -3.93548431 3.06093224 0 0 Z " fill="#656562" transform="translate(517,559)"/>
<path d="M0 0 C1.125 1.6875 1.125 1.6875 2 4 C1.00449408 7.80102261 0.34152484 8.77231678 -3 11 C-2.53199289 6.94393835 -2.12046792 3.53411321 0 0 Z " fill="#616160" transform="translate(323,527)"/>
<path d="M0 0 C1.17539996 0.92652701 2.34010577 1.86663387 3.5 2.8125 C4.1496875 3.33457031 4.799375 3.85664063 5.46875 4.39453125 C7 6 7 6 7 9 C6.34 8.67 5.68 8.34 5 8 C5 7.34 5 6.68 5 6 C3.68 5.67 2.36 5.34 1 5 C0.67 3.35 0.34 1.7 0 0 Z " fill="#3F3F3F" transform="translate(825,502)"/>
<path d="M0 0 C3.77545388 1.09068668 6.47043472 1.9083091 9 5 C8.01 5.495 8.01 5.495 7 6 C4.8359375 5.22265625 4.8359375 5.22265625 2.375 4.0625 C1.55773437 3.68222656 0.74046875 3.30195313 -0.1015625 2.91015625 C-0.72804688 2.60980469 -1.35453125 2.30945313 -2 2 C-1.34 1.34 -0.68 0.68 0 0 Z " fill="#3F4040" transform="translate(756,392)"/>
<path d="M0 0 C3.3 0.33 6.6 0.66 10 1 C10 1.99 10 2.98 10 4 C8.72125 3.896875 7.4425 3.79375 6.125 3.6875 C5.04605469 3.60048828 5.04605469 3.60048828 3.9453125 3.51171875 C2 3 2 3 0 0 Z " fill="#4A4A4A" transform="translate(638,293)"/>
<path d="M0 0 C0.99 0.33 1.98 0.66 3 1 C1.35 3.64 -0.3 6.28 -2 9 C-3.231394 6.53721199 -3.07159196 4.7204945 -3 2 C-2.34 2 -1.68 2 -1 2 C-0.67 1.34 -0.34 0.68 0 0 Z " fill="#40403F" transform="translate(288,547)"/>
<path d="M0 0 C0.66 0.33 1.32 0.66 2 1 C1.3125 2.9375 1.3125 2.9375 0 5 C-2.625 5.75 -2.625 5.75 -5 6 C-4.75 4.125 -4.75 4.125 -4 2 C-2.0625 0.6875 -2.0625 0.6875 0 0 Z " fill="#494948" transform="translate(476,442)"/>
<path d="M0 0 C3.99500618 1.3697164 6.80009492 3.25722422 10 6 C9.67 6.66 9.34 7.32 9 8 C7.68121422 7.23997083 6.3701316 6.46656347 5.0625 5.6875 C4.33160156 5.25824219 3.60070312 4.82898438 2.84765625 4.38671875 C1 3 1 3 0 0 Z " fill="#434343" transform="translate(770,383)"/>
<path d="M0 0 C0.99 0.66 1.98 1.32 3 2 C2.34 3.65 1.68 5.3 1 7 C0.01 7 -0.98 7 -2 7 C-2.33 6.01 -2.66 5.02 -3 4 C-2.34 3.67 -1.68 3.34 -1 3 C-0.67 2.01 -0.34 1.02 0 0 Z " fill="#3F4040" transform="translate(599,385)"/>
<path d="M0 0 C0 0.66 0 1.32 0 2 C-6.625 2.25 -6.625 2.25 -10 0 C-6.7169902 -1.6415049 -3.57454967 -0.51888624 0 0 Z " fill="#4B4B4B" transform="translate(640,310)"/>
<path d="M0 0 C1.58294782 -0.05437607 3.16644256 -0.09296271 4.75 -0.125 C5.63171875 -0.14820313 6.5134375 -0.17140625 7.421875 -0.1953125 C10.1135858 0.00860498 11.69904974 0.63448279 14 2 C11.69 2.33 9.38 2.66 7 3 C7 2.67 7 2.34 7 2 C4.69 1.67 2.38 1.34 0 1 C0 0.67 0 0.34 0 0 Z " fill="#40403F" transform="translate(276,675)"/>
<path d="M0 0 C2.18975773 3.28463659 2.99806563 6.20696275 4 10 C1.4375 7.8125 1.4375 7.8125 -1 5 C-0.8125 2.1875 -0.8125 2.1875 0 0 Z " fill="#646463" transform="translate(218,629)"/>
<path d="M0 0 C0 1.98 0 3.96 0 6 C-0.99 6.33 -1.98 6.66 -3 7 C-3.6875 5.1875 -3.6875 5.1875 -4 3 C-1.64285714 0 -1.64285714 0 0 0 Z " fill="#3F3F3F" transform="translate(327,522)"/>
<path d="M0 0 C-2.62198774 2.15377564 -4.64404172 3.40072174 -8 4 C-5.97675095 -0.48005146 -4.79569304 -1.43870791 0 0 Z " fill="#444444" transform="translate(598,521)"/>
<path d="M0 0 C0.99 0.33 1.98 0.66 3 1 C1.55746343 4.36591866 -0.33264727 6.51047079 -3 9 C-2.01 6.03 -1.02 3.06 0 0 Z " fill="#676766" transform="translate(363,508)"/>
<path d="M0 0 C3.76488042 1.72154788 6.15063897 3.99234114 9 7 C6 7 6 7 4.39453125 5.46875 C3.87246094 4.8190625 3.35039063 4.169375 2.8125 3.5 C2.28269531 2.8503125 1.75289062 2.200625 1.20703125 1.53125 C0.80871094 1.0259375 0.41039062 0.520625 0 0 Z " fill="#666665" transform="translate(806,484)"/>
<path d="M0 0 C0.66 0.66 1.32 1.32 2 2 C-0.64 4.31 -3.28 6.62 -6 9 C-6.66 8.67 -7.32 8.34 -8 8 C-5.36 5.36 -2.72 2.72 0 0 Z " fill="#727371" transform="translate(521,425)"/>
<path d="M0 0 C0.66 0.33 1.32 0.66 2 1 C1.875 2.875 1.875 2.875 1 5 C-2.0625 6.25 -2.0625 6.25 -5 7 C-3.35 4.69 -1.7 2.38 0 0 Z " fill="#454645" transform="translate(553,400)"/>
<path d="M0 0 C0.66 0.33 1.32 0.66 2 1 C1.0022242 3.99332739 0.2477975 4.94766315 -2 7 C-2.66 6.67 -3.32 6.34 -4 6 C-3.6875 4.125 -3.6875 4.125 -3 2 C-2.01 1.34 -1.02 0.68 0 0 Z " fill="#424344" transform="translate(591,392)"/>
<path d="M0 0 C-1.29299694 2.88437779 -2.65941363 4.87219421 -5 7 C-5.1875 4.625 -5.1875 4.625 -5 2 C-2 0 -2 0 0 0 Z " fill="#454645" transform="translate(369,503)"/>
<path d="M0 0 C-5.75 4 -5.75 4 -8 4 C-7 1 -7 1 -5.125 -0.25 C-3 -1 -3 -1 0 0 Z " fill="#454544" transform="translate(629,501)"/>
<path d="M0 0 C0 0.66 0 1.32 0 2 C-4.455 3.485 -4.455 3.485 -9 5 C-8.67 4.01 -8.34 3.02 -8 2 C-5.27366306 0.89786379 -2.95855967 0 0 0 Z " fill="#3F4040" transform="translate(678,477)"/>
<path d="M0 0 C0.66 0 1.32 0 2 0 C2.33 0.99 2.66 1.98 3 3 C-0.75 6 -0.75 6 -3 6 C-2 4 -1 2 0 0 Z " fill="#111111" transform="translate(471,440)"/>
<path d="M0 0 C-2.31 1.65 -4.62 3.3 -7 5 C-7.66 4.67 -8.32 4.34 -9 4 C-6.56225426 0.2214941 -6.56225426 0.2214941 -3.9375 -0.8125 C-2 -1 -2 -1 0 0 Z " fill="#424242" transform="translate(544,411)"/>
<path d="M0 0 C-0.33 3.3 -0.66 6.6 -1 10 C-1.33 10 -1.66 10 -2 10 C-2.33 7.03 -2.66 4.06 -3 1 C-1 0 -1 0 0 0 Z " fill="#494848" transform="translate(259,537)"/>
<path d="M0 0 C0 3 0 3 -2.5 5.6875 C-3.325 6.450625 -4.15 7.21375 -5 8 C-5.66 7.67 -6.32 7.34 -7 7 C-4.66666667 4.66666667 -2.33333333 2.33333333 0 0 Z " fill="#656463" transform="translate(588,516)"/>
<path d="M0 0 C0.66 0.99 1.32 1.98 2 3 C0.02 4.32 -1.96 5.64 -4 7 C-4.66 6.67 -5.32 6.34 -6 6 C-4.02 4.02 -2.04 2.04 0 0 Z " fill="#686766" transform="translate(571,406)"/>
<path d="M0 0 C5.75 1.75 5.75 1.75 8 4 C7.01 4.495 7.01 4.495 6 5 C3.64018187 4.06421005 1.30368736 3.06652192 -1 2 C-0.67 1.34 -0.34 0.68 0 0 Z " fill="#404142" transform="translate(757,377)"/>
<path d="M0 0 C1.37478516 0.01740234 1.37478516 0.01740234 2.77734375 0.03515625 C3.69644531 0.04417969 4.61554688 0.05320312 5.5625 0.0625 C6.27277344 0.07410156 6.98304688 0.08570313 7.71484375 0.09765625 C7.71484375 0.42765625 7.71484375 0.75765625 7.71484375 1.09765625 C6.26020894 1.4867561 4.80093168 1.85853654 3.33984375 2.22265625 C2.12167969 2.53589844 2.12167969 2.53589844 0.87890625 2.85546875 C0.16476562 2.93539063 -0.549375 3.0153125 -1.28515625 3.09765625 C-1.94515625 2.43765625 -2.60515625 1.77765625 -3.28515625 1.09765625 C-2.28515625 0.09765625 -2.28515625 0.09765625 0 0 Z " fill="#3C3C3D" transform="translate(432.28515625,314.90234375)"/>
</svg>
